<svg xmlns="http://www.w3.org/2000/svg" viewBox="0 0 430 430">
  <defs>
    <style>
      .cls-1 {
        isolation: isolate;
      }

      .cls-2 {
        fill: #646e78;
      }

      .cls-3 {
        mix-blend-mode: multiply;
        opacity: 0.5;
      }
    </style>
  </defs>
  <g class="cls-1">
    <g id="Warstwa_1" data-name="Warstwa 1">
      <g>
        <path class="cls-2" d="M320,346.73c0,75.94-69.67,13.93-101.56,13.93-33.34,0-101.57,59.64-101.57-13.93,0-56.1,45.48-137,101.57-137S320,290.63,320,346.73Z"/>
        <path class="cls-2" d="M129.59,175.93c11.5,30.42,7.07,60.27-9.89,66.68s-40-13.06-51.51-43.47c-10.41-27.55-7.76-54.63,5.42-64.26a19.32,19.32,0,0,1,4.47-2.42A19.06,19.06,0,0,1,83,131.33C99.28,129.82,119.18,148.39,129.59,175.93Z"/>
        <path class="cls-2" d="M195.91,102.32C203.06,134,194.52,163,176.84,167s-37.82-18.5-45-50.22c-6.47-28.72-.08-55.17,14.32-62.87A18.6,18.6,0,0,1,156,51.67C172.3,52.44,189.43,73.59,195.91,102.32Z"/>
        <path class="cls-2" d="M299.44,108.21c-4.13,32.25-22.05,56.53-40,54.22s-29.21-30.31-25.08-62.56c3.74-29.21,18.8-51.88,35-54.19a18.74,18.74,0,0,1,10,1.28C294.33,53.26,303.18,79,299.44,108.21Z"/>
        <path class="cls-2" d="M361.47,194c-11.81,30.29-35.08,49.51-52,42.93s-21-36.48-9.2-66.77c10.69-27.44,30.79-45.79,47-44.12a18.67,18.67,0,0,1,4.93,1.18,18.94,18.94,0,0,1,4.44,2.47C369.79,139.41,372.16,166.52,361.47,194Z"/>
        <g class="cls-3">
          <path class="cls-2" d="M140.07,346.73c0-52.17,39.33-125.82,90-135.88a60.07,60.07,0,0,0-11.61-1.16c-56.09,0-101.57,80.94-101.57,137,0,36.19,16.52,40.14,37.27,34.82C145.53,377.69,140.07,367.54,140.07,346.73Z"/>
        </g>
      </g>
    </g>
  </g>
</svg>
